<svg width="77" height="71" viewBox="0 0 77 71" fill="none" xmlns="http://www.w3.org/2000/svg">
<path d="M38.5 0C17.6292 0 0 16.2554 0 35.5C0 54.7445 17.6292 71 38.5 71C59.3708 71 77 54.7445 77 35.5C77 16.2554 59.3708 0 38.5 0ZM38.5 17.75C45.1489 17.75 50.05 22.2656 50.05 28.4C50.05 34.5344 45.1489 39.05 38.5 39.05C31.8549 39.05 26.95 34.5344 26.95 28.4C26.95 22.2656 31.8549 17.75 38.5 17.75ZM18.8419 52.4406C22.2953 47.7546 28.0549 44.6306 34.65 44.6306H42.35C48.9489 44.6306 54.7047 47.7546 58.1581 52.4406C53.2378 57.297 46.2577 60.35 38.5 60.35C30.7422 60.35 23.7622 57.297 18.8419 52.4406Z" fill="white"/>
</svg>
